<svg width="25" height="24" viewBox="0 0 25 24" fill="none" xmlns="http://www.w3.org/2000/svg">
<path d="M11.9089 3.68294C12.1045 3.36828 12.5625 3.36828 12.7581 3.68294L15.2415 7.67708C15.3103 7.78779 15.4197 7.86723 15.5462 7.89849L20.1123 9.02605C20.472 9.11488 20.6135 9.55042 20.3747 9.83372L17.3435 13.4298C17.2594 13.5295 17.2177 13.658 17.2271 13.788L17.5657 18.4791C17.5923 18.8486 17.2218 19.1178 16.8786 18.9782L12.5218 17.2066C12.4011 17.1575 12.2659 17.1575 12.1452 17.2066L7.78837 18.9782C7.44515 19.1178 7.07465 18.8486 7.10133 18.4791L7.43994 13.788C7.44932 13.658 7.40756 13.5295 7.32354 13.4298L4.29229 9.83372C4.05349 9.55042 4.195 9.11488 4.55471 9.02605L9.12077 7.89849C9.24733 7.86723 9.35668 7.78779 9.42551 7.67708L11.9089 3.68294Z" fill="url(#paint0_linear_2_984)"/>
<defs>
<linearGradient id="paint0_linear_2_984" x1="12.3335" y1="3" x2="12.3335" y2="21" gradientUnits="userSpaceOnUse">
<stop stop-color="#605DEC"/>
<stop offset="1" stop-color="#2A26D9"/>
</linearGradient>
</defs>
</svg>
