<svg width="25" height="24" viewBox="0 0 25 24" fill="none" xmlns="http://www.w3.org/2000/svg">
<path d="M12.2419 3.68294C12.4375 3.36828 12.8955 3.36828 13.0911 3.68294L15.5745 7.67708C15.6433 7.78779 15.7527 7.86723 15.8792 7.89849L20.4453 9.02605C20.805 9.11488 20.9465 9.55042 20.7077 9.83372L17.6765 13.4298C17.5924 13.5295 17.5507 13.658 17.5601 13.788L17.8987 18.4791C17.9254 18.8486 17.5549 19.1178 17.2116 18.9782L12.8548 17.2066C12.7341 17.1575 12.5989 17.1575 12.4782 17.2066L8.12138 18.9782C7.77815 19.1178 7.40766 18.8486 7.43433 18.4791L7.77295 13.788C7.78233 13.658 7.74056 13.5295 7.65654 13.4298L4.62529 9.83372C4.38649 9.55042 4.52801 9.11488 4.88772 9.02605L9.45377 7.89849C9.58034 7.86723 9.68969 7.78779 9.75852 7.67708L12.2419 3.68294Z" fill="url(#paint0_linear_2_916)"/>
<defs>
<linearGradient id="paint0_linear_2_916" x1="12.6665" y1="3" x2="12.6665" y2="21" gradientUnits="userSpaceOnUse">
<stop stop-color="#605DEC"/>
<stop offset="1" stop-color="#2A26D9"/>
</linearGradient>
</defs>
</svg>
