<svg width="25" height="24" viewBox="0 0 25 24" fill="none" xmlns="http://www.w3.org/2000/svg">
<path d="M12.1015 16.2802L12.1015 16.2802L8.48964 17.749L8.77035 13.86C8.79851 13.47 8.6732 13.0843 8.42114 12.7853L5.90819 9.80409L9.69352 8.86932C10.0732 8.77556 10.4013 8.53722 10.6078 8.20509L12.6665 4.89389L14.7253 8.20509L15.5745 7.67708L14.7253 8.20509C14.9318 8.53722 15.2598 8.77556 15.6395 8.86932L19.4248 9.80409L16.9119 12.7853C16.6598 13.0843 16.5345 13.47 16.5627 13.86L16.8434 17.749L13.2315 16.2802L12.8548 17.2066L13.2315 16.2802C12.8692 16.1329 12.4638 16.1329 12.1015 16.2802ZM5.12746 9.99689L5.12808 9.99674C5.12787 9.99679 5.12767 9.99684 5.12746 9.99689L5.00759 9.51147L5.12746 9.99689Z" stroke="url(#paint0_linear_2_924)" stroke-width="2"/>
<defs>
<linearGradient id="paint0_linear_2_924" x1="12.6665" y1="3" x2="12.6665" y2="21" gradientUnits="userSpaceOnUse">
<stop stop-color="#605DEC"/>
<stop offset="1" stop-color="#2A26D9"/>
</linearGradient>
</defs>
</svg>
