<svg width="33" height="32" viewBox="0 0 33 32" fill="none" xmlns="http://www.w3.org/2000/svg">
<path d="M15.0858 16L10.8431 11.7574C10.4526 11.3668 10.4526 10.7337 10.8431 10.3431C11.2337 9.95262 11.8668 9.95262 12.2573 10.3431L16.5 14.5858L20.7426 10.3431C21.1332 9.95262 21.7663 9.95262 22.1568 10.3431C22.5474 10.7337 22.5474 11.3668 22.1568 11.7574L17.9142 16L22.1568 20.2426C22.5474 20.6332 22.5474 21.2663 22.1568 21.6569C21.7663 22.0474 21.1332 22.0474 20.7426 21.6569L16.5 17.4142L12.2573 21.6569C11.8668 22.0474 11.2337 22.0474 10.8431 21.6569C10.4526 21.2663 10.4526 20.6332 10.8431 20.2426L15.0858 16Z" fill="#52527A" fill-opacity="0.2"/>
</svg>
