<svg width="17" height="17" viewBox="0 0 17 17" fill="none" xmlns="http://www.w3.org/2000/svg">
<path d="M4.40132 7.83405H12.0993C12.674 7.83405 12.9793 7.15405 12.5973 6.72405L8.74865 2.39405C8.68622 2.32358 8.60955 2.26717 8.5237 2.22854C8.43786 2.1899 8.34479 2.16992 8.25065 2.16992C8.15651 2.16992 8.06344 2.1899 7.97759 2.22854C7.89175 2.26717 7.81508 2.32358 7.75265 2.39405L3.90265 6.72405C3.52065 7.15405 3.82598 7.83405 4.40132 7.83405ZM7.75198 14.6067C7.81441 14.6772 7.89108 14.7336 7.97693 14.7722C8.06277 14.8109 8.15584 14.8308 8.24998 14.8308C8.34412 14.8308 8.43719 14.8109 8.52304 14.7722C8.60888 14.7336 8.68555 14.6772 8.74798 14.6067L12.5966 10.2767C12.9793 9.84738 12.674 9.16738 12.0986 9.16738H4.40132C3.82665 9.16738 3.52132 9.84738 3.90332 10.2774L7.75198 14.6067Z" fill="#9E9E9E"/>
</svg>
